<?xml version="1.0" encoding="UTF-8"?>
<svg width="250px" height="250px" viewBox="0 0 250 250" version="1.1" xmlns="http://www.w3.org/2000/svg" xmlns:xlink="http://www.w3.org/1999/xlink">
    <title>Artboard</title>
    <g id="Artboard" stroke="none" stroke-width="1" fill="none" fill-rule="evenodd">
        <g id="main-logo" transform="translate(25.000000, 7.000000)" fill="#FFFFFF" fill-rule="nonzero">
            <g id="g" transform="translate(0.000000, 86.363636)">
                <g id="path" transform="translate(0.000000, 9.090909)">
                    <g id="path0_fill-link" transform="translate(2.454545, 1.636364)">
                        <path d="M7.93172727,24.8878636 C7.93172727,31.9697727 7.36518182,34.2764545 5.90831818,35.9760909 C4.28690455,37.4361364 2.18192727,38.2435455 0,38.2423182 L0.566554545,42.2890909 C3.94927273,42.3348182 7.23159091,41.1399091 9.79327273,38.9302727 C11.1715909,37.2494091 12.1972727,35.3082273 12.8090909,33.2224091 C13.4209545,31.1365909 13.6064091,28.9489091 13.3544545,26.7898636 L13.3544545,0 L7.93172727,0 L7.93172727,24.726 L7.93172727,24.8878636 Z" id="path0_fill"></path>
                    </g>
                </g>
                <g id="path" transform="translate(22.727273, 9.090909)">
                    <g id="path1_fill-link" transform="translate(3.090909, 1.681818)">
                        <path d="M25.0092727,21.6504091 C25.0092727,24.6855 25.0092727,27.3968636 25.2520455,29.744 L20.4363636,29.744 L20.1126364,24.9283182 C19.1053636,26.6322273 17.6648636,28.039 15.9376364,29.0056818 C14.2103636,29.9723636 12.2579545,30.4645 10.2788636,30.4319545 C5.58459091,30.4319545 0,27.8825 0,17.4821818 L0,0.202340455 L5.42272727,0.202340455 L5.42272727,16.3895455 C5.42272727,22.0146364 7.16286364,25.7781364 12.0595,25.7781364 C13.0669091,25.789 14.0663182,25.5985455 14.9991818,25.218 C15.9320455,24.8374545 16.7795,24.2745 17.4919091,23.5620909 C18.2042727,22.8497273 18.7672727,22.0022273 19.1478182,21.0694091 C19.5283182,20.1365455 19.7187727,19.1370909 19.7079545,18.1296818 L19.7079545,0 L25.1306364,0 L25.1306364,21.4885455 L25.0092727,21.6504091 Z" id="path1_fill"></path>
                    </g>
                </g>
                <g id="path" transform="translate(59.090909, 9.090909)">
                    <g id="path2_fill-link" transform="translate(1.772727, 1.181818)">
                        <path d="M0.242808182,10.3301818 C0.242808182,6.56663636 0.242808182,3.49107273 0,0.698777273 L4.85618182,0.698777273 L5.09895455,5.75727273 C6.18090909,3.92970455 7.7385,2.42997273 9.60568182,1.41797273 C11.4729091,0.405975 13.5797273,-0.0803572727 15.7015909,0.0108225 C22.9049091,0.0108225 28.3276364,6.04054545 28.3276364,15.0244545 C28.3276364,25.6270909 21.8122727,30.8879545 14.7708182,30.8879545 C12.9685909,30.9683636 11.1760909,30.5822727 9.56677273,29.767 C7.95745455,28.9516818 6.58581818,27.7348182 5.58459091,26.2341364 L5.58459091,26.2341364 L5.58459091,42.4213182 L0.242808182,42.4213182 L0.242808182,10.4515909 L0.242808182,10.3301818 Z M5.58459091,18.2214545 C5.59927273,18.9557273 5.68054545,19.6871364 5.82740909,20.4067273 C6.28654545,22.2035909 7.33177273,23.7960455 8.79763636,24.9320909 C10.2635455,26.0681818 12.0664091,26.683 13.921,26.6792896 C19.627,26.6792896 22.9858636,22.0254545 22.9858636,15.2672727 C22.9858636,9.35895455 19.8293636,4.30043636 14.1233636,4.30043636 C11.8652727,4.48535 9.75218182,5.48754545 8.18022727,7.11909091 C6.60827273,8.75063636 5.68540909,10.8995455 5.58459091,13.1629545 L5.58459091,18.2214545 Z" id="path2_fill"></path>
                    </g>
                </g>
                <g id="path" transform="translate(90.909091, 9.090909)">
                    <g id="path3_fill-link" transform="translate(1.954545, 1.772727)">
                        <path d="M5.98927273,0.0809359091 L12.5046364,17.5226818 C13.1925909,19.4651364 13.921,21.8122727 14.4066364,23.5524091 C14.9731818,21.7718182 15.5801818,19.5055909 16.3086364,17.4012727 L22.2169545,0.0809359091 L27.9229545,0.0809359091 L19.8293636,21.1243182 C15.7825455,31.2413182 13.314,36.4617273 9.59090909,39.6182273 C7.71568182,41.3310455 5.42945455,42.5299091 2.95416818,43.0984545 L1.61872273,38.5660455 C3.34948182,37.9973636 4.95627273,37.1047273 6.3535,35.9356364 C8.32772727,34.3267273 9.89445455,32.2747273 10.9263636,29.9463636 C11.1472273,29.5431364 11.2977727,29.1051818 11.3715,28.6513636 C11.3255,28.163 11.2025909,27.685 11.0073182,27.235 L0,0 L5.90831818,0 L5.98927273,0.0809359091 Z" id="path3_fill"></path>
                    </g>
                </g>
                <g id="path" transform="translate(122.727273, 0.000000)">
                    <g id="path4_fill-link" transform="translate(2.500000, 2.454545)">
                        <path d="M9.95513636,0 L9.95513636,8.49827273 L17.725,8.49827273 L17.725,12.5450909 L9.95513636,12.5450909 L9.95513636,28.4895 C9.95513636,32.1316364 11.0073182,34.2359545 14.0019545,34.2359545 C15.0655455,34.2533636 16.1267727,34.1309091 17.1584545,33.8717727 L17.4012727,37.9185455 C15.8542727,38.4545 14.2218636,38.7014091 12.5855455,38.647 C11.5019091,38.7148182 10.4164091,38.5474091 9.40354545,38.1562273 C8.39068182,37.7650455 7.47445455,37.1593636 6.71768182,36.3807727 C5.06931818,34.1760455 4.31739091,31.4286818 4.61336364,28.6918636 L4.61336364,12.5046364 L0,12.5046364 L0,8.45781818 L4.69427273,8.45781818 L4.69427273,1.25450909 L9.95513636,0 Z" id="path4_fill"></path>
                    </g>
                </g>
                <g id="path" transform="translate(145.454545, 9.090909)">
                    <g id="path5_fill-link" transform="translate(2.136364, 1.318182)">
                        <path d="M5.35072727,16.2681364 C5.24090909,17.6405909 5.43036364,19.0205 5.90604545,20.3125455 C6.38172727,21.6045909 7.13227273,22.7779091 8.10586364,23.7514545 C9.07940909,24.7250455 10.2527273,25.4755909 11.5447727,25.9512727 C12.8368182,26.4269545 14.2167273,26.6164091 15.5891818,26.5065909 C18.3651364,26.5686818 21.123,26.0446818 23.6827727,24.9687727 L24.6135455,29.0155909 C21.4724091,30.3095 18.0947727,30.9299091 14.6988636,30.8366364 C12.7191364,30.9721818 10.7335455,30.6779091 8.87827273,29.9739545 C7.02295455,29.2700455 5.34190909,28.1731364 3.95032273,26.7585455 C2.55876364,25.3439091 1.48965,23.645 0.816322727,21.7784091 C0.142992727,19.9117727 -0.118619091,17.9216364 0.0494309091,15.9444091 C0.0494309091,7.04145455 5.35072727,0 14.0109091,0 C23.7232273,0 26.1513182,8.49827273 26.1513182,13.921 C26.2032273,14.7565455 26.2032273,15.5945 26.1513182,16.4300455 L5.22936364,16.4300455 L5.35072727,16.2681364 Z M21.2142273,12.2213636 C21.3704091,11.1394091 21.2928636,10.0365909 20.9867727,8.98718182 C20.6807273,7.93777273 20.1532727,6.96613636 19.44,6.13777273 C18.7266818,5.30945455 17.8441364,4.64363636 16.8517727,4.1852 C15.8594091,3.72677273 14.7802727,3.48639091 13.6871818,3.48025455 C11.4636818,3.6412 9.3805,4.62672727 7.84586364,6.24372727 C6.31122727,7.86068182 5.43581818,9.9925 5.39122727,12.2213636 L21.2142273,12.2213636 Z" id="path5_fill"></path>
                    </g>
                </g>
                <g id="path" transform="translate(177.272727, 9.090909)">
                    <g id="path6_fill-link" transform="translate(4.454545, 1.090909)">
                        <path d="M0.242808182,9.96490909 C0.242808182,6.48468182 0.242808182,3.49002727 0,0.7382 L4.85618182,0.7382 L4.85618182,6.52513636 L5.09895455,6.52513636 C5.60868182,4.73904545 6.66181818,3.15597273 8.11218182,1.99567727 C9.56254545,0.835377273 11.3381818,0.155436364 13.1925909,0.0502445455 C13.703,-0.0167481364 14.2199545,-0.0167481364 14.7303636,0.0502445455 L14.7303636,5.10877273 C14.1119091,5.03713636 13.4872727,5.03713636 12.8688182,5.10877273 C11.0318182,5.17990909 9.2835,5.91736364 7.95045455,7.18340909 C6.61740909,8.44940909 5.79081818,10.1573636 5.62504545,11.9883182 C5.47372727,12.8163636 5.3925,13.6556818 5.38227273,14.4973182 L5.38227273,30.2394091 L0.0404680455,30.2394091 L0.0404680455,10.0053636 L0.242808182,9.96490909 Z" id="path6_fill"></path>
                    </g>
                </g>
            </g>
            <g id="g" transform="translate(4.545455, 0.000000)">
                <g id="path" transform="translate(145.454545, 0.000000)">
                    <g id="path7_fill-link" transform="translate(2.181818, 3.136364)">
                        <path d="M27.4117727,12.8893182 C27.5779545,15.608 26.9311364,18.3145909 25.5536364,20.6643182 C24.1761364,23.0140909 22.1304091,24.9005909 19.6769545,26.0835909 C17.2235,27.2665455 14.4734545,27.6924091 11.7771364,27.3069545 C9.08081818,26.9214545 6.56027273,25.7420909 4.53658182,23.9190455 C2.51289545,22.0960455 1.07768182,19.7118636 0.413775909,17.0702727 C-0.250130455,14.4286818 -0.112677727,11.6492273 0.808622727,9.08604545 C1.72992273,6.52286364 3.39336818,4.29191364 5.58704545,2.67744091 C7.78072727,1.06296818 10.4053636,0.138039091 13.1265455,0.0204792273 C14.9106818,-0.0776963636 16.6966364,0.177792727 18.3816364,0.772254545 C20.0666818,1.36671364 21.6175909,2.28842273 22.9451818,3.48436818 C24.2727273,4.68031818 25.3508182,6.12690909 26.1173636,7.74095455 C26.8839091,9.355 27.3238182,11.1046818 27.4117727,12.8893182 L27.4117727,12.8893182 Z" id="path7_fill"></path>
                    </g>
                </g>
                <g id="path" transform="translate(9.090909, 140.909091)">
                    <g id="path8_fill-link" transform="translate(0.954545, 1.227273)">
                        <path d="M84.9827273,32.3744545 C48.5618182,32.3744545 16.5514091,19.3032727 0,0 C6.422,17.3655 18.0097727,32.3468182 33.2035909,42.9274545 C48.3972727,53.5081818 66.4681818,59.18 84.9827273,59.18 C103.497727,59.18 121.568182,53.5081818 136.762273,42.9274545 C151.955909,32.3468182 163.543636,17.3655 169.965909,0 C153.455,19.3032727 121.565909,32.3744545 84.9827273,32.3744545 Z" id="path8_fill"></path>
                    </g>
                </g>
                <g id="path" transform="translate(9.090909, 18.181818)">
                    <g id="path9_fill-link" transform="translate(0.954545, 4.000000)">
                        <path d="M84.9827273,26.8056818 C121.404091,26.8056818 153.414545,39.8768636 169.965909,59.18 C163.543636,41.8146364 151.955909,26.8333182 136.762273,16.2526818 C121.568182,5.67204545 103.497727,0 84.9827273,0 C66.4681818,0 48.3972727,5.67204545 33.2035909,16.2526818 C18.0097727,26.8333182 6.422,41.8146364 0,59.18 C16.5514091,39.8364091 48.4,26.8056818 84.9827273,26.8056818 Z" id="path9_fill"></path>
                    </g>
                </g>
                <g id="path" transform="translate(9.090909, 195.454545)">
                    <g id="path10_fill-link" transform="translate(1.272727, 0.409091)">
                        <path d="M34.5261818,16.2116364 C34.7398182,19.636 33.9291818,23.0464545 32.1975909,26.0084545 C30.4659545,28.9704545 27.8917727,31.3499091 24.803,32.8436818 C21.7142273,34.3374545 18.2506818,34.8779091 14.8536818,34.3961818 C11.4566364,33.9144091 8.27990909,32.4323182 5.72822727,30.1386818 C3.17654091,27.8450455 1.36542727,24.8436818 0.525622727,21.5170455 C-0.314177727,18.1903636 -0.144645,14.6890455 1.01262273,11.4590455 C2.16989091,8.22909091 4.2625,5.41677273 7.02381818,3.38038636 C9.78518182,1.34399091 13.0902273,0.175725 16.5179091,0.0244358636 C18.7633182,-0.0956686364 21.0104091,0.227805909 23.1308182,0.976377273 C25.2511818,1.72495455 27.2033182,2.88395455 28.8756364,4.38717727 C30.5479545,5.89040909 31.9077727,7.70836364 32.8772727,9.73727273 C33.8468182,11.7661364 34.4071364,13.9661818 34.5261818,16.2116364 L34.5261818,16.2116364 Z" id="path10_fill"></path>
                    </g>
                </g>
                <g id="path" transform="translate(0.000000, 22.727273)">
                    <g id="path11_fill-link" transform="translate(3.954545, 1.954545)">
                        <path d="M10.2300455,19.9065 C8.26754545,19.9606818 6.33281818,19.4334091 4.66918182,18.391 C3.00556364,17.3485455 1.6873,15.8374545 0.880186364,14.0478182 C0.0730736364,12.2581364 -0.186853636,10.2697727 0.133092727,8.33277273 C0.453039091,6.39577273 1.33857273,4.59659091 2.67833182,3.16155455 C4.01809545,1.7265 5.75227273,0.719618182 7.66277273,0.267535 C9.57322727,-0.184547727 11.5747273,-0.0616463636 13.4155909,0.620781818 C15.2564091,1.30321364 16.8543636,2.5147 18.0084545,4.10289091 C19.1625909,5.69109091 19.8213636,7.58509091 19.9019091,9.54668182 C19.9785909,12.1990909 19.0059545,14.7747273 17.1951364,16.7143182 C15.3843182,18.6539545 12.8814545,19.8010455 10.2300455,19.9065 Z" id="path11_fill"></path>
                    </g>
                </g>
            </g>
        </g>
    </g>
</svg>