<?xml version="1.0" encoding="UTF-8"?>
<svg width="250px" height="250px" viewBox="0 0 250 250" version="1.1" xmlns="http://www.w3.org/2000/svg" xmlns:xlink="http://www.w3.org/1999/xlink">
    <title>Artboard Copy</title>
    <g id="Artboard-Copy" stroke="none" stroke-width="1" fill="none" fill-rule="evenodd">
        <path d="M35.3862727,128.978773 C35.3862727,136.060682 34.8197273,138.367364 33.3628636,140.067 C31.74145,141.527045 29.6364727,142.334455 27.4545455,142.333227 L28.0211,146.38 C31.4038182,146.425727 34.6861364,145.230818 37.2478182,143.021182 C38.6261364,141.340318 39.6518182,139.399136 40.2636364,137.313318 C40.8755,135.2275 41.0609545,133.039818 40.809,130.880773 L40.809,104.090909 L35.3862727,104.090909 L35.3862727,128.816909 L35.3862727,128.978773 Z" id="path0_fill" fill="#9CB2C7" fill-rule="nonzero"></path>
        <path d="M75.8274545,125.786773 C75.8274545,128.821864 75.8274545,131.533227 76.0702273,133.880364 L71.2545455,133.880364 L70.9308182,129.064682 C69.9235455,130.768591 68.4830455,132.175364 66.7558182,133.142045 C65.0285455,134.108727 63.0761364,134.600864 61.0970455,134.568318 C56.4027727,134.568318 50.8181818,132.018864 50.8181818,121.618545 L50.8181818,104.338704 L56.2409091,104.338704 L56.2409091,120.525909 C56.2409091,126.151 57.9810455,129.9145 62.8776818,129.9145 C63.8850909,129.925364 64.8845,129.734909 65.8173636,129.354364 C66.7502273,128.973818 67.5976818,128.410864 68.3100909,127.698455 C69.0224545,126.986091 69.5854545,126.138591 69.966,125.205773 C70.3465,124.272909 70.5369545,123.273455 70.5261364,122.266045 L70.5261364,104.136364 L75.9488182,104.136364 L75.9488182,125.624909 L75.8274545,125.786773 Z" id="path1_fill" fill="#9CB2C7" fill-rule="nonzero"></path>
        <path d="M86.1064445,113.966545 C86.1064445,110.203 86.1064445,107.127436 85.8636364,104.335141 L90.7198182,104.335141 L90.9625909,109.393636 C92.0445455,107.566068 93.6021364,106.066336 95.4693182,105.054336 C97.3365455,104.042339 99.4433636,103.556006 101.565227,103.647186 C108.768545,103.647186 114.191273,109.676909 114.191273,118.660818 C114.191273,129.263455 107.675909,134.524318 100.634455,134.524318 C98.8322273,134.604727 97.0397273,134.218636 95.4304091,133.403364 C93.8210909,132.588045 92.4494545,131.371182 91.4482273,129.8705 L91.4482273,129.8705 L91.4482273,146.057682 L86.1064445,146.057682 L86.1064445,114.087955 L86.1064445,113.966545 Z M91.4482273,121.857818 C91.4629091,122.592091 91.5441818,123.3235 91.6910455,124.043091 C92.1501818,125.839955 93.1954091,127.432409 94.6612727,128.568455 C96.1271818,129.704545 97.9300455,130.319364 99.7846364,130.315653 C105.490636,130.315653 108.8495,125.661818 108.8495,118.903636 C108.8495,112.995318 105.693,107.9368 99.987,107.9368 C97.7289091,108.121714 95.6158182,109.123909 94.0438636,110.755455 C92.4719091,112.387 91.5490455,114.535909 91.4482273,116.799318 L91.4482273,121.857818 Z" id="path2_fill" fill="#9CB2C7" fill-rule="nonzero"></path>
        <path d="M123.852909,104.308209 L130.368273,121.749955 C131.056227,123.692409 131.784636,126.039545 132.270273,127.779682 C132.836818,125.999091 133.443818,123.732864 134.172273,121.628545 L140.080591,104.308209 L145.786591,104.308209 L137.693,125.351591 C133.646182,135.468591 131.177636,140.689 127.454545,143.8455 C125.579318,145.558318 123.293091,146.757182 120.817805,147.325727 L119.482359,142.793318 C121.213118,142.224636 122.819909,141.332 124.217136,140.162909 C126.191364,138.554 127.758091,136.502 128.79,134.173636 C129.010864,133.770409 129.161409,133.332455 129.235136,132.878636 C129.189136,132.390273 129.066227,131.912273 128.870955,131.462273 L117.863636,104.227273 L123.771955,104.227273 L123.852909,104.308209 Z" id="path3_fill" fill="#9CB2C7" fill-rule="nonzero"></path>
        <path d="M160.182409,95.8181818 L160.182409,104.316455 L167.952273,104.316455 L167.952273,108.363273 L160.182409,108.363273 L160.182409,124.307682 C160.182409,127.949818 161.234591,130.054136 164.229227,130.054136 C165.292818,130.071545 166.354045,129.949091 167.385727,129.689955 L167.628545,133.736727 C166.081545,134.272682 164.449136,134.519591 162.812818,134.465182 C161.729182,134.533 160.643682,134.365591 159.630818,133.974409 C158.617955,133.583227 157.701727,132.977545 156.944955,132.198955 C155.296591,129.994227 154.544664,127.246864 154.840636,124.510045 L154.840636,108.322818 L150.227273,108.322818 L150.227273,104.276 L154.921545,104.276 L154.921545,97.0726909 L160.182409,95.8181818 Z" id="path4_fill" fill="#9CB2C7" fill-rule="nonzero"></path>
        <path d="M177.941636,120.040864 C177.831818,121.413318 178.021273,122.793227 178.496955,124.085273 C178.972636,125.377318 179.723182,126.550636 180.696773,127.524182 C181.670318,128.497773 182.843636,129.248318 184.135682,129.724 C185.427727,130.199682 186.807636,130.389136 188.180091,130.279318 C190.956045,130.341409 193.713909,129.817409 196.273682,128.7415 L197.204455,132.788318 C194.063318,134.082227 190.685682,134.702636 187.289773,134.609364 C185.310045,134.744909 183.324455,134.450636 181.469182,133.746682 C179.613864,133.042773 177.932818,131.945864 176.541232,130.531273 C175.149673,129.116636 174.080559,127.417727 173.407232,125.551136 C172.733902,123.6845 172.47229,121.694364 172.64034,119.717136 C172.64034,110.814182 177.941636,103.772727 186.601818,103.772727 C196.314136,103.772727 198.742227,112.271 198.742227,117.693727 C198.794136,118.529273 198.794136,119.367227 198.742227,120.202773 L177.820273,120.202773 L177.941636,120.040864 Z M193.805136,115.994091 C193.961318,114.912136 193.883773,113.809318 193.577682,112.759909 C193.271636,111.7105 192.744182,110.738864 192.030909,109.9105 C191.317591,109.082182 190.435045,108.416364 189.442682,107.957927 C188.450318,107.4995 187.371182,107.259118 186.278091,107.252982 C184.054591,107.413927 181.971409,108.399455 180.436773,110.016455 C178.902136,111.633409 178.026727,113.765227 177.982136,115.994091 L193.805136,115.994091 Z" id="path5_fill" fill="#9CB2C7" fill-rule="nonzero"></path>
        <path d="M206.970081,113.510364 C206.970081,110.030136 206.970081,107.035482 206.727273,104.283655 L211.583455,104.283655 L211.583455,110.070591 L211.826227,110.070591 C212.335955,108.2845 213.389091,106.701427 214.839455,105.541132 C216.289818,104.380832 218.065455,103.700891 219.919864,103.595699 C220.430273,103.528706 220.947227,103.528706 221.457636,103.595699 L221.457636,108.654227 C220.839182,108.582591 220.214545,108.582591 219.596091,108.654227 C217.759091,108.725364 216.010773,109.462818 214.677727,110.728864 C213.344682,111.994864 212.518091,113.702818 212.352318,115.533773 C212.201,116.361818 212.119773,117.201136 212.109545,118.042773 L212.109545,133.784864 L206.767741,133.784864 L206.767741,113.550818 L206.970081,113.510364 Z" id="path6_fill" fill="#9CB2C7" fill-rule="nonzero"></path>
        <path d="M204.593591,23.0256818 C204.759773,25.7443636 204.112955,28.4509545 202.735455,30.8006818 C201.357955,33.1504545 199.312227,35.0369545 196.858773,36.2199545 C194.405318,37.4029091 191.655273,37.8287727 188.958955,37.4433182 C186.262636,37.0578182 183.742091,35.8784545 181.7184,34.0554091 C179.694714,32.2324091 178.2595,29.8482273 177.595594,27.2066364 C176.931688,24.5650455 177.06914,21.7855909 177.990441,19.2224091 C178.911741,16.6592273 180.575186,14.4282773 182.768864,12.8138045 C184.962545,11.1993318 187.587182,10.2744027 190.308364,10.1568429 C192.0925,10.0586673 193.878455,10.3141564 195.563455,10.9086182 C197.2485,11.5030773 198.799409,12.4247864 200.127,13.6207318 C201.454545,14.8166818 202.532636,16.2632727 203.299182,17.8773182 C204.065727,19.4913636 204.505636,21.2410455 204.593591,23.0256818 L204.593591,23.0256818 Z" id="path7_fill" fill="#9CB2C7" fill-rule="nonzero"></path>
        <path d="M124.573636,181.510818 C88.1527273,181.510818 56.1423182,168.439636 39.5909091,149.136364 C46.0129091,166.501864 57.6006818,181.483182 72.7945,192.063818 C87.9881818,202.644545 106.059091,208.316364 124.573636,208.316364 C143.088636,208.316364 161.159091,202.644545 176.353182,192.063818 C191.546818,181.483182 203.134545,166.501864 209.556818,149.136364 C193.045909,168.439636 161.156818,181.510818 124.573636,181.510818 Z" id="path8_fill" fill="#9CB2C7" fill-rule="nonzero"></path>
        <path d="M124.573636,55.9875 C160.995,55.9875 193.005455,69.0586818 209.556818,88.3618182 C203.134545,70.9964545 191.546818,56.0151364 176.353182,45.4345 C161.159091,34.8538636 143.088636,29.1818182 124.573636,29.1818182 C106.059091,29.1818182 87.9881818,34.8538636 72.7945,45.4345 C57.6006818,56.0151364 46.0129091,70.9964545 39.5909091,88.3618182 C56.1423182,69.0182273 87.9909091,55.9875 124.573636,55.9875 Z" id="path9_fill" fill="#9CB2C7" fill-rule="nonzero"></path>
        <path d="M74.4352727,219.075273 C74.6489091,222.499636 73.8382727,225.910091 72.1066818,228.872091 C70.3750455,231.834091 67.8008636,234.213545 64.7120909,235.707318 C61.6233182,237.201091 58.1597727,237.741545 54.7627727,237.259818 C51.3657273,236.778045 48.189,235.295955 45.6373182,233.002318 C43.0856318,230.708682 41.2745182,227.707318 40.4347136,224.380682 C39.5949132,221.054 39.7644459,217.552682 40.9217136,214.322682 C42.0789818,211.092727 44.1715909,208.280409 46.9329091,206.244023 C49.6942727,204.207627 52.9993182,203.039361 56.427,202.888072 C58.6724091,202.767968 60.9195,203.091442 63.0399091,203.840014 C65.1602727,204.588591 67.1124091,205.747591 68.7847273,207.250814 C70.4570455,208.754045 71.8168636,210.572 72.7863636,212.600909 C73.7559091,214.629773 74.3162273,216.829818 74.4352727,219.075273 L74.4352727,219.075273 Z" id="path10_fill" fill="#9CB2C7" fill-rule="nonzero"></path>
        <path d="M43.7300455,51.5883182 C41.7675455,51.6425 39.8328182,51.1152273 38.1691818,50.0728182 C36.5055636,49.0303636 35.1873,47.5192727 34.3801864,45.7296364 C33.5730736,43.9399545 33.3131464,41.9515909 33.6330927,40.0145909 C33.9530391,38.0775909 34.8385727,36.2784091 36.1783318,34.8433727 C37.5180955,33.4083182 39.2522727,32.4014364 41.1627727,31.9493532 C43.0732273,31.4972705 45.0747273,31.6201718 46.9155909,32.3026 C48.7564091,32.9850318 50.3543636,34.1965182 51.5084545,35.7847091 C52.6625909,37.3729091 53.3213636,39.2669091 53.4019091,41.2285 C53.4785909,43.8809091 52.5059545,46.4565455 50.6951364,48.3961364 C48.8843182,50.3357727 46.3814545,51.4828636 43.7300455,51.5883182 Z" id="path11_fill" fill="#9CB2C7" fill-rule="nonzero"></path>
    </g>
</svg>