<?xml version="1.0" encoding="UTF-8"?>
<svg width="583px" height="371px" viewBox="0 0 583 371" version="1.1" xmlns="http://www.w3.org/2000/svg" xmlns:xlink="http://www.w3.org/1999/xlink">
    <title>CSC_logo</title>
    <g id="Page-1" stroke="none" stroke-width="1" fill="none" fill-rule="evenodd">
        <g id="CSC_logo" transform="translate(0.000000, 1.000000)" fill="#FFFFFF">
            <path d="M291.276,292.051 C291.276,292.045 284.673,291.01 284.537,287.934 C278.546,153.15 266.191,158.392 7.108,153.15 C2.241,153.051 0.369,146.036 0.369,146.036 L291.276,146.036 L291.276,292.051 L291.276,292.051 Z" id="Path" stroke="#FFFFFF" stroke-width="0.5669" fill-rule="nonzero"></path>
            <path d="M298.015,4.14 C304.005,138.923 316.361,133.682 575.444,138.923 C580.31,139.022 582.183,146.036 582.183,146.036 L291.276,146.036 L291.276,0.022 C291.276,0.028 297.878,1.063 298.015,4.14 Z" id="Path" stroke="#FFFFFF" stroke-width="0.5669" fill-rule="nonzero"></path>
            <g id="Group" transform="translate(204.547000, 318.931000)">
                <path d="M1.444,34.86 C4.359,43.919 11.615,50.86 22.573,50.86 C33.996,50.86 37.192,44.469 40.047,44.469 C40.319,44.469 40.523,44.604 40.659,44.604 L41.203,44.333 L35.151,36.038 L34.471,36.446 C34.539,36.786 34.607,37.126 34.607,37.466 C34.607,40.798 28.759,44.198 23.116,44.062 C16.18,43.931 11.909,40.115 9.752,34.865 L1.444,34.86 L1.444,34.86 Z M97.63,34.86 C97.68,35.19 97.705,35.536 97.705,35.901 C97.705,41.546 93.626,44.061 87.71,44.061 C80.843,44.061 72.548,40.252 72.548,36.649 C72.548,36.309 72.548,35.969 72.616,35.629 L71.868,35.221 L66.905,45.08 L67.721,45.42 C67.993,45.08 68.401,44.945 68.741,44.877 C69.489,44.809 74.996,50.859 87.643,50.859 C98.386,50.859 105.729,44.671 105.729,35.494 C105.729,35.277 105.725,35.066 105.719,34.857 L97.63,34.86 L97.63,34.86 Z M133.621,34.86 C136.535,43.919 143.792,50.86 154.75,50.86 C166.173,50.86 169.369,44.469 172.225,44.469 C172.496,44.469 172.701,44.604 172.837,44.604 L173.381,44.333 L167.329,36.038 L166.649,36.446 C166.716,36.786 166.785,37.126 166.785,37.466 C166.785,40.798 160.937,44.198 155.294,44.062 C148.358,43.931 144.087,40.115 141.93,34.865 L133.621,34.86 L133.621,34.86 Z" id="Shape"></path>
                <path d="M9.754,34.86 C8.57,31.983 8.024,28.669 8.024,25.296 C8.024,15.913 12.648,6.802 22.914,6.802 C28.353,6.802 33.929,9.657 33.929,12.31 C33.929,12.921 34.065,13.33 33.929,13.601 L34.745,13.941 L40.321,5.238 L39.641,4.83 C39.437,5.035 39.029,5.307 38.553,5.307 C37.941,5.307 36.445,4.014 33.929,2.655 C31.413,1.296 27.81,0.003 22.846,0.003 C8.024,0.003 -1.42108547e-14,12.243 -1.42108547e-14,25.433 C-1.42108547e-14,28.691 0.489,31.888 1.444,34.859 L9.754,34.86 L9.754,34.86 Z M105.719,34.86 C105.104,15.508 76.287,25.042 76.287,14.143 C76.287,9.928 78.803,6.801 86.486,6.801 C92.469,6.801 99.541,9.385 99.541,12.989 C99.541,13.26 99.541,13.532 99.473,13.737 L100.357,14.143 L105.117,3.877 L104.437,3.604 C103.893,4.217 103.281,4.352 102.874,4.352 C102.058,4.352 100.561,3.264 98.046,2.176 C95.531,1.088 91.995,2.84217094e-14 86.895,2.84217094e-14 C76.152,2.84217094e-14 68.537,5.168 68.537,14.416 C68.537,33.221 96.008,24.107 97.631,34.863 L105.719,34.86 L105.719,34.86 Z M141.931,34.86 C140.746,31.983 140.201,28.669 140.201,25.296 C140.201,15.913 144.824,6.802 155.091,6.802 C160.53,6.802 166.107,9.657 166.107,12.31 C166.107,12.921 166.243,13.33 166.107,13.601 L166.922,13.941 L172.497,5.238 L171.817,4.83 C171.613,5.035 171.206,5.307 170.729,5.307 C170.118,5.307 168.622,4.014 166.106,2.655 C163.59,1.296 159.986,0.003 155.023,0.003 C140.201,0.003 132.177,12.243 132.177,25.433 C132.177,28.691 132.665,31.888 133.621,34.859 L141.931,34.86 L141.931,34.86 Z" id="Shape"></path>
            </g>
        </g>
    </g>
</svg>