<?xml version="1.0" encoding="UTF-8" standalone="no"?>
<!DOCTYPE svg PUBLIC "-//W3C//DTD SVG 1.1//EN" "http://www.w3.org/Graphics/SVG/1.1/DTD/svg11.dtd">
<svg width="100%" height="100%" viewBox="0 0 1070 671" version="1.1" xmlns="http://www.w3.org/2000/svg" xmlns:xlink="http://www.w3.org/1999/xlink" xml:space="preserve" xmlns:serif="http://www.serif.com/" style="fill-rule:evenodd;clip-rule:evenodd;stroke-linejoin:round;stroke-miterlimit:2;">
    <g id="logo" transform="matrix(1,0,0,1,-189.803,16.0871)">
        <rect x="189.803" y="-16.087" width="1069.1" height="670.811" style="fill:none;"/>
        <g transform="matrix(1,0,0,1,0.803336,0.912946)">
            <path d="M722.991,246.846C722.994,165.21 722.997,83.574 723,1.469C723.444,1 723.889,1 724.667,1C725.652,1.333 726.274,1.753 726.96,1.986C734.529,4.553 736.104,6.272 736.165,13.041C736.294,27.396 737.048,41.764 738.092,56.086C739.008,68.646 740.301,81.205 742.082,93.67C745.412,116.974 749.826,140.056 761.495,160.961C770.559,177.197 783.466,189.623 799.855,198.375C819.35,208.786 840.345,214.538 862.038,217.986C875.221,220.081 888.401,222.262 901.645,223.895C910.935,225.041 920.325,225.445 929.682,225.976C948.785,227.059 967.898,227.993 987.005,229.011C992.433,229.301 997.852,229.819 1003.28,229.971C1018.2,230.388 1033.13,230.658 1048.05,231.003C1061.98,231.325 1075.9,231.699 1089.83,231.992C1107.25,232.359 1124.67,232.644 1142.1,233.008C1156.35,233.305 1170.61,233.611 1184.87,234.026C1190.96,234.204 1197.06,234.551 1203.13,235.043C1207.82,235.423 1211.93,240.988 1212.81,248.018C1051.48,248.018 890.207,248.018 728.093,248.028C725.833,247.641 724.412,247.244 722.991,246.846Z" style="fill:rgb(131,0,81);fill-rule:nonzero;"/>
        </g>
        <g transform="matrix(1,0,0,1,0.803336,0.912946)">
            <path d="M722.525,246.914C724.412,247.244 725.833,247.641 727.63,248.099C728.005,329.631 728.005,411.101 728.005,493.078C725.56,492.335 723.483,491.671 721.388,491.073C717.339,489.916 716.024,487.453 715.859,483.089C715.198,465.635 714.424,448.162 712.863,430.771C711.479,415.343 709.483,399.931 706.887,384.659C702.918,361.318 696.327,338.7 681.136,319.922C673.512,310.497 664.284,302.484 653.311,296.639C634.521,286.631 614.594,280.313 593.643,276.995C578.856,274.652 564.105,272.024 549.262,270.119C539.487,268.865 529.582,268.573 519.726,268.021C500.621,266.949 481.51,265.975 462.399,265.008C454.478,264.608 446.552,264.251 438.624,264.018C425.035,263.619 411.443,263.339 397.853,262.998C384.928,262.673 372.006,262.279 359.08,262.013C340.492,261.629 321.901,261.347 303.312,260.996C286.722,260.682 270.132,260.335 253.542,259.999C245.371,259.834 240.19,255.251 239.207,246.982C400.189,246.982 561.124,246.982 722.525,246.914Z" style="fill:rgb(0,103,120);fill-rule:nonzero;"/>
        </g>
        <g transform="matrix(1,0,0,1,0.803336,0.912946)">
            <path d="M742.853,541.034C746.581,542.174 749.914,543.276 753.569,544.484C751.172,549.67 748.341,555.797 745.394,562.174C744.692,561.739 743.795,561.501 743.693,561.073C741.661,552.51 734.534,551.213 727.603,550.106C723.843,549.505 719.897,549.808 716.056,550.044C710.046,550.412 705.405,554.734 705.007,559.978C704.69,564.147 708.77,568.693 714.382,569.933C721.213,571.443 728.203,572.297 734.957,574.074C747.998,577.506 753.013,582.577 754.965,595.622C756.043,602.827 750.424,614.534 743.91,617.966C728.085,626.302 712.453,624.754 697.025,616.598C694.375,615.197 691.484,614.251 688.035,612.816C690.841,607.572 693.923,601.809 697.164,595.752C705.206,608.455 716.346,613.144 730.03,610.002C736.262,608.571 739.844,604.595 740,598.937C740.153,593.384 737.476,589.789 730.919,588.011C723.716,586.057 716.322,584.817 709.088,582.967C695.757,579.558 692.199,574.19 691.155,564.091C689.894,551.898 695.961,543.227 707.021,539.482C719.015,535.421 730.842,535.907 742.853,541.034Z" style="fill:rgb(94,106,113);fill-rule:nonzero;"/>
        </g>
        <g transform="matrix(1,0,0,1,0.803336,0.912946)">
            <path d="M599.759,555.739C593.664,561.657 590.762,568.638 591.085,576.674C591.327,582.694 591.313,589.035 593.214,594.62C598.626,610.525 615.634,615.833 629.857,606.336C632.502,604.57 633.664,600.584 635.789,597.176C639.26,601.928 642.822,606.803 646.636,612.023C638.767,615.64 631.796,620.4 624.155,622.044C605.994,625.951 588.554,620.951 580.024,600.219C572.989,583.119 574.622,566.629 584.987,551.235C591.09,542.171 600.278,538.161 610.746,537.07C620.672,536.035 629.911,538.456 638.414,543.807C640.096,544.866 642.29,545.111 645.171,546.024C641.619,551.423 638.263,556.524 634.906,561.624C632.594,548.378 606.909,545.559 599.759,555.739Z" style="fill:rgb(94,106,113);fill-rule:nonzero;"/>
        </g>
        <g transform="matrix(1,0,0,1,0.803336,0.912946)">
            <path d="M847.62,538.031C854.07,540.784 860.096,543.515 866.829,546.565C863.632,551.42 860.273,556.519 856.915,561.618C856.434,561.518 855.952,561.417 855.471,561.317C854.958,552.622 848.211,551.446 842.138,550.088C824.931,546.238 814.195,560.277 813.206,573.467C812.699,580.216 813.325,587.393 815.133,593.906C819.626,610.094 837.29,615.962 851.662,606.483C854.33,604.724 855.59,600.831 857.891,597.327C861.292,601.994 864.877,606.913 868.256,611.549C863.17,614.374 858.844,617.215 854.18,619.294C830.17,629.998 804.647,619.111 799.041,591.266C796.206,577.182 798.356,563.957 806.537,551.873C813.129,542.139 822.647,537.817 833.936,537.1C838.319,536.822 842.774,537.671 847.62,538.031Z" style="fill:rgb(94,106,113);fill-rule:nonzero;"/>
        </g>
    </g>
</svg>
