<?xml version="1.0" encoding="UTF-8"?>
<svg width="267px" height="122px" viewBox="0 0 267 122" version="1.1" xmlns="http://www.w3.org/2000/svg" xmlns:xlink="http://www.w3.org/1999/xlink">
    <title>g16</title>
    <g id="Page-1" stroke="none" stroke-width="1" fill="none" fill-rule="evenodd">
        <g id="Haka_nega_rgb" transform="translate(-429.000000, -337.000000)" fill="#FFFFFF" fill-rule="nonzero">
            <g id="g10" transform="translate(561.500000, 397.706670) scale(-1, 1) rotate(-180.000000) translate(-561.500000, -397.706670) translate(0.000000, 0.706670)">
                <g id="g14">
                    <g id="g16-Clipped">
                        <g id="g16" transform="translate(429.333323, 335.999992)">
                            <g id="g22" transform="translate(0.070000, 31.425733)">
                                <path d="M43.9999989,1.3333333 L55.6533319,1.3333333 L55.6533319,66.5053317 L43.9999989,66.5053317 L43.9999989,39.4546657 L12.8906663,39.4546657 L12.8906663,66.5053317 L1.2373333,66.5053317 L1.2373333,1.3333333 L12.8906663,1.3333333 L12.8906663,30.0213326 L43.9999989,30.0213326 L43.9999989,1.3333333 Z M106.115997,10.3826664 L106.115997,33.1973325 C106.115997,45.7119989 100.035997,51.0066654 85.9506645,51.0066654 C80.7826646,51.0066654 75.1079981,50.2373321 69.2306649,48.6959988 L69.2306649,40.8026656 C76.0199981,42.2466656 80.579998,42.6319989 83.8226646,42.6319989 C91.8279977,42.6319989 94.969331,39.839999 94.969331,33.2933325 L94.969331,30.5986659 L84.3293312,30.5986659 C71.0546649,30.5986659 63.8599984,25.2079994 63.8599984,14.7146663 C63.8599984,5.4733332 69.8386649,0.178666662 80.275998,0.178666662 C87.3693311,0.178666662 92.6386644,2.58533327 95.9826643,6.24266651 L96.0839976,6.24266651 C97.1986642,1.81466662 100.339997,0.178666662 104.697331,0.178666662 C107.331997,0.178666662 109.459997,0.755999981 111.486664,1.4293333 L111.486664,7.78266647 C110.777331,7.68666647 109.966664,7.59066648 109.358664,7.59066648 C107.331997,7.59066648 106.115997,8.45733312 106.115997,10.3826664 M75.0066648,15.6773329 C75.0066648,21.4533328 78.8573314,24.1479994 86.6599978,24.1479994 L94.969331,24.1479994 L94.969331,12.0186664 C91.7266644,9.32399977 87.9773311,8.26399979 83.9239979,8.26399979 C77.7426647,8.26399979 75.0066648,10.9599997 75.0066648,15.6773329 M165.193329,1.3333333 L143.91333,30.7906659 L162.457329,50.0439987 L150.094663,50.0439987 L131.347997,30.3093326 L131.347997,71.3186649 L120.20133,71.3186649 L120.20133,1.3333333 L131.347997,1.3333333 L131.347997,18.6613329 L136.718663,23.8599994 L152.72933,1.3333333 L165.193329,1.3333333 Z M210.995995,10.3826664 L210.995995,33.1973325 C210.995995,45.7119989 204.915995,51.0066654 190.830662,51.0066654 C185.662662,51.0066654 179.987996,50.2373321 174.110662,48.6959988 L174.110662,40.8026656 C180.899995,42.2466656 185.459995,42.6319989 188.702662,42.6319989 C196.707995,42.6319989 199.849328,39.839999 199.849328,33.2933325 L199.849328,30.5986659 L189.209329,30.5986659 C175.934662,30.5986659 168.739996,25.2079994 168.739996,14.7146663 C168.739996,5.4733332 174.718662,0.178666662 185.155995,0.178666662 C192.249329,0.178666662 197.518662,2.58533327 200.862662,6.24266651 L200.963995,6.24266651 C202.078662,1.81466662 205.219995,0.178666662 209.577328,0.178666662 C212.211995,0.178666662 214.339995,0.755999981 216.366661,1.4293333 L216.366661,7.78266647 C215.657328,7.68666647 214.846661,7.59066648 214.238661,7.59066648 C212.211995,7.59066648 210.995995,8.45733312 210.995995,10.3826664 M179.886662,15.6773329 C179.886662,21.4533328 183.737329,24.1479994 191.539995,24.1479994 L199.849328,24.1479994 L199.849328,12.0186664 C196.606662,9.32399977 192.857329,8.26399979 188.803995,8.26399979 C182.622662,8.26399979 179.886662,10.9599997 179.886662,15.6773329" id="path24"></path>
                            </g>
                            <g id="g26" transform="translate(159.701996, 0.451200)">
                                <path d="M13.333333,22.6666661 L0.227999994,22.6666661 C10.9693331,9.41066643 27.3719993,0.930666643 45.7613322,0.930666643 C78.115998,0.930666643 104.343997,27.158666 104.343997,59.5133318 C104.343997,70.3826649 101.373331,80.551998 96.2159976,89.2759978 C94.4799976,86.4719978 92.049331,84.1453312 89.1399978,82.5706646 C92.8039977,75.6933314 94.8959976,67.850665 94.8959976,59.5133318 C94.8959976,32.3773325 72.8973315,10.3799997 45.7613322,10.3799997 C33.3186658,10.3799997 21.9906661,15.041333 13.333333,22.6666661" id="path28"></path>
                            </g>
                            <g id="g30" transform="translate(155.745463, 90.149064)">
                                <path d="M71.9999982,24 C65.1293317,26.8279993 57.6079986,28.398666 49.7173321,28.398666 C28.8293326,28.398666 10.5053331,17.4559996 0.134666663,0.999999975 L11.7519997,0.999999975 C20.7639995,11.9586664 34.4226658,18.9493329 49.7173321,18.9493329 C55.5773319,18.9493329 61.1719985,17.8706662 66.3813317,15.9893329 C67.5333316,19.1333329 69.4786649,21.8919995 71.9999982,24" id="path32"></path>
                            </g>
                            <g id="g34" transform="translate(219.857328, 80.207465)">
                                <path d="M19.9999995,0 C30.7373326,0 39.4426657,8.70399978 39.4426657,19.4426662 C39.4426657,30.1799992 30.7373326,38.883999 19.9999995,38.883999 C9.26266644,38.883999 0.557333319,30.1799992 0.557333319,19.4426662 C0.557333319,8.70399978 9.26266644,0 19.9999995,0" id="path36"></path>
                            </g>
                        </g>
                    </g>
                </g>
            </g>
        </g>
    </g>
</svg>