<?xml version="1.0" encoding="UTF-8" standalone="no"?>
<!DOCTYPE svg PUBLIC "-//W3C//DTD SVG 1.1//EN" "http://www.w3.org/Graphics/SVG/1.1/DTD/svg11.dtd">
<svg width="100%" height="100%" viewBox="0 0 512 512" version="1.1" xmlns="http://www.w3.org/2000/svg" xmlns:xlink="http://www.w3.org/1999/xlink" xml:space="preserve" xmlns:serif="http://www.serif.com/" style="fill-rule:evenodd;clip-rule:evenodd;stroke-linejoin:round;stroke-miterlimit:2;">
    <g transform="matrix(10.3937,0,0,10.3937,-148.172,-107.391)">
        <path d="M63.516,17.721C63.516,13.643 60.205,10.332 56.127,10.332L21.645,10.332C17.567,10.332 14.256,13.643 14.256,17.721L14.256,52.204C14.256,56.282 17.567,59.593 21.645,59.593L56.127,59.593C60.205,59.593 63.516,56.282 63.516,52.204L63.516,17.721Z" style="fill:rgb(0,96,197);"/>
    </g>
    <g transform="matrix(0.837717,0,0,0.837717,49.9216,54.4516)">
        <g transform="matrix(0.9375,0,0,0.9375,6,2.93442)">
            <path d="M142.089,154.847C156.213,106.399 200.963,70.955 253.92,70.955C305.869,70.955 349.919,105.061 364.915,152.107C374.097,146.863 384.72,143.866 396.036,143.866C430.841,143.866 459.099,172.226 459.099,207.159C459.099,216.894 456.904,226.119 452.983,234.365C488.33,255.616 512,294.346 512,338.561C512,399.687 466.761,450.33 407.97,458.805L407.97,460.023L393.204,460.023C392.303,460.043 391.407,460.053 390.508,460.053C389.61,460.053 388.713,460.043 387.812,460.023L91.54,460.023L91.54,459.095C39.897,452.219 -0,407.95 -0,354.436C-0,323.894 12.996,296.363 33.755,277.077C27.288,264.952 23.626,251.141 23.626,236.49C23.626,188.439 63.009,149.427 111.517,149.427C122.267,149.427 132.568,151.343 142.089,154.847Z" style="fill-opacity:0.3;"/>
        </g>
        <g transform="matrix(7.2646,0,0,7.47276,-13.4221,-26.4649)">
            <g transform="matrix(1.14425,0,0,1.03919,-2.45355,-7.77603)">
                <rect x="15.211" y="29.739" width="34.18" height="34.171" style="fill:white;"/>
            </g>
            <g transform="matrix(1.37654,0,0,1.33819,-7.09454,-19.872)">
                <circle cx="16.995" cy="48.771" r="9.899" style="fill:white;"/>
            </g>
            <g transform="matrix(1.01617,0,0,0.978556,-5.64291,-4.41434)">
                <circle cx="22.347" cy="35.773" r="11.162" style="fill:white;"/>
            </g>
            <g transform="matrix(0.777114,0,0,0.758219,22.3584,-2.86081)">
                <circle cx="40.436" cy="39.267" r="10.473" style="fill:white;"/>
            </g>
            <g transform="matrix(1.4353,0,0,1.39633,-22.5963,-30.3818)">
                <circle cx="40.436" cy="39.267" r="10.473" style="fill:white;"/>
            </g>
            <g transform="matrix(1.86635,0,0,1.77198,-40.6595,-44.8324)">
                <ellipse cx="50.22" cy="49.792" rx="8.401" ry="8.602" style="fill:white;"/>
            </g>
        </g>
        <g transform="matrix(7.48016,0,0,8.44521,14.6098,-62.1612)">
            <g transform="matrix(0.126717,0,0,0.112237,-1.48585,6.38992)">
                <path d="M242.633,271.373L65.4,271.373L65.4,297.471L242.87,297.471L242.87,391.878L269.367,391.878L269.367,298.307L242.633,271.373Z" style="fill:rgb(0,103,120);"/>
            </g>
            <g transform="matrix(-0.126717,-1.3745e-17,1.55183e-17,-0.112237,63.3535,70.3124)">
                <path d="M242.633,271.373L65.4,271.373L65.4,297.471L242.87,297.471L242.87,391.878L269.367,391.878L269.367,298.307L242.633,271.373Z" style="fill:rgb(130,1,79);"/>
            </g>
        </g>
    </g>
</svg>
